<svg xmlns="http://www.w3.org/2000/svg" xmlns:xlink="http://www.w3.org/1999/xlink" width="500" zoomAndPan="magnify" viewBox="0 0 375 374.999991" height="500" preserveAspectRatio="xMidYMid meet" version="1.0"><defs><clipPath id="201db394ca"><path d="M 83.859375 83.859375 L 290.859375 83.859375 L 290.859375 290.859375 L 83.859375 290.859375 Z M 83.859375 83.859375 " clip-rule="nonzero"/></clipPath><clipPath id="23adf304d7"><path d="M 147.304688 158.414062 L 227.554688 158.414062 L 227.554688 216.914062 L 147.304688 216.914062 Z M 147.304688 158.414062 " clip-rule="nonzero"/></clipPath></defs><g clip-path="url(#201db394ca)"><path fill="#d9d9d9" d="M 291.0625 238.835938 L 291.09375 238.734375 C 291.09375 238.703125 291.09375 238.675781 291.09375 238.644531 C 291.101562 238.578125 291.101562 238.511719 291.09375 238.445312 L 291.09375 84.894531 C 291.101562 84.828125 291.101562 84.761719 291.09375 84.691406 C 291.097656 84.664062 291.097656 84.632812 291.09375 84.605469 L 291.0625 84.5 C 291.0625 84.464844 291.027344 84.433594 291.011719 84.398438 C 290.996094 84.371094 290.980469 84.34375 290.964844 84.320312 C 290.890625 84.203125 290.792969 84.109375 290.679688 84.035156 C 290.660156 84.019531 290.640625 84.003906 290.621094 83.992188 L 290.519531 83.9375 L 290.414062 83.90625 L 290.324219 83.90625 C 290.253906 83.878906 290.179688 83.863281 290.101562 83.859375 L 136.554688 83.859375 C 136.488281 83.851562 136.417969 83.851562 136.351562 83.859375 L 136.265625 83.859375 L 136.160156 83.890625 L 136.058594 83.945312 C 136.027344 83.957031 136.003906 83.96875 135.980469 83.988281 C 135.921875 84.023438 135.871094 84.066406 135.824219 84.117188 L 84.164062 135.824219 C 84.113281 135.871094 84.070312 135.921875 84.035156 135.980469 C 84.015625 136.003906 84 136.035156 83.988281 136.0625 C 83.988281 136.09375 83.953125 136.125 83.9375 136.160156 L 83.90625 136.265625 C 83.902344 136.292969 83.902344 136.324219 83.90625 136.351562 C 83.898438 136.417969 83.898438 136.488281 83.90625 136.554688 L 83.90625 290.101562 C 83.898438 290.171875 83.898438 290.238281 83.90625 290.304688 C 83.902344 290.335938 83.902344 290.363281 83.90625 290.394531 L 83.9375 290.496094 C 83.953125 290.53125 83.972656 290.566406 83.992188 290.601562 C 84.003906 290.628906 84.015625 290.65625 84.035156 290.679688 C 84.109375 290.792969 84.203125 290.890625 84.320312 290.964844 C 84.34375 290.980469 84.367188 290.996094 84.398438 291.003906 L 84.5 291.0625 L 84.605469 291.09375 L 84.691406 291.09375 C 84.757812 291.117188 84.824219 291.132812 84.894531 291.140625 L 238.445312 291.140625 C 238.511719 291.148438 238.578125 291.148438 238.644531 291.140625 L 238.734375 291.140625 L 238.835938 291.109375 L 238.941406 291.050781 C 238.96875 291.042969 238.996094 291.027344 239.019531 291.011719 C 239.078125 290.972656 239.128906 290.929688 239.175781 290.878906 L 290.832031 239.222656 C 290.882812 239.175781 290.925781 239.125 290.964844 239.066406 C 290.980469 239.042969 290.996094 239.015625 291.003906 238.988281 C 291.027344 238.9375 291.046875 238.890625 291.0625 238.835938 Z M 137.589844 137.589844 L 237.40625 137.589844 L 237.40625 237.40625 L 137.589844 237.40625 Z M 239.480469 136.984375 L 289.066406 87.398438 L 289.066406 237.40625 L 239.480469 237.40625 Z M 238.011719 135.519531 L 137.589844 135.519531 L 137.589844 85.929688 L 287.601562 85.929688 Z M 135.519531 135.519531 L 87.398438 135.519531 L 135.519531 87.398438 Z M 85.929688 137.589844 L 135.519531 137.589844 L 135.519531 238.011719 L 85.929688 287.601562 Z M 136.984375 239.480469 L 237.40625 239.480469 L 237.40625 289.066406 L 87.398438 289.066406 Z M 239.480469 239.480469 L 287.601562 239.480469 L 239.480469 287.601562 Z M 239.480469 239.480469 " fill-opacity="1" fill-rule="nonzero"/></g><g clip-path="url(#23adf304d7)"><path fill="#d9d9d9" d="M 220.738281 158.414062 L 154.257812 158.414062 C 150.433594 158.414062 147.332031 161.515625 147.332031 165.335938 L 147.332031 209.660156 C 147.332031 213.480469 150.433594 216.585938 154.257812 216.585938 L 220.738281 216.585938 C 224.5625 216.585938 227.664062 213.480469 227.664062 209.660156 L 227.664062 165.335938 C 227.664062 161.515625 224.5625 158.414062 220.738281 158.414062 Z M 201.722656 184.757812 L 224.425781 163.441406 C 224.714844 164.023438 224.894531 164.660156 224.894531 165.335938 L 224.894531 209.660156 C 224.894531 210.183594 224.785156 210.683594 224.605469 211.15625 Z M 220.738281 161.183594 C 221.335938 161.183594 221.902344 161.308594 222.402344 161.542969 L 187.5 194.3125 L 152.59375 161.542969 C 153.09375 161.308594 153.664062 161.183594 154.257812 161.183594 Z M 150.394531 211.15625 C 150.214844 210.683594 150.101562 210.183594 150.101562 209.660156 L 150.101562 165.335938 C 150.101562 164.660156 150.28125 164.023438 150.574219 163.453125 L 173.273438 184.769531 Z M 154.257812 213.8125 C 153.511719 213.8125 152.832031 213.605469 152.222656 213.261719 L 175.296875 186.652344 L 186.542969 197.222656 C 186.804688 197.46875 187.152344 197.59375 187.484375 197.59375 C 187.816406 197.59375 188.164062 197.46875 188.425781 197.222656 L 199.671875 186.652344 L 222.777344 213.261719 C 222.167969 213.605469 221.488281 213.8125 220.738281 213.8125 Z M 154.257812 213.8125 " fill-opacity="1" fill-rule="nonzero"/></g></svg>